<?xml version="1.0" encoding="utf-8"?>
<!-- Generator: Adobe Illustrator 19.2.1, SVG Export Plug-In . SVG Version: 6.00 Build 0)  -->
<svg version="1.1" id="layer" xmlns="http://www.w3.org/2000/svg" xmlns:xlink="http://www.w3.org/1999/xlink" x="0px" y="0px"
	 viewBox="0 0 652 652" style="enable-background:new 0 0 652 652;" xml:space="preserve">
<style type="text/css">
	.st0{fill:none;stroke:#525A5B;stroke-width:0.9146;stroke-miterlimit:10;}
	.st1{fill:#D71920;}
	.st2{fill:#004990;}
</style>
<path class="st0" d="M71,320.7c0-138.1,112.3-250,250.9-250c138.6,0,249.1,111.9,249.1,250c0,138.1-110.6,250-249.1,250
	C183.4,570.8,71,458.8,71,320.7z"/>
<path class="st1" d="M89.3,320.7C89.3,192.7,193.1,89,321,89s231.7,103.7,231.7,231.7c0,128-103.7,231.7-231.7,231.7
	C193.1,552.4,89.3,448.7,89.3,320.7z M104.5,320.7c0,59.8,24.3,113.9,63.5,153.1c39.2,39.2,93.3,63.4,153.1,63.5
	c59.8,0,113.9-24.3,153.1-63.5s63.5-93.3,63.5-153.1c0-59.8-24.3-113.9-63.5-153.1c-39.2-39.2-93.3-63.5-153.1-63.5
	c-59.9,0-113.9,24.2-153.1,63.5C128.7,206.8,104.5,260.9,104.5,320.7z"/>
<path class="st2" d="M346.4,377.5c0-5.9,4.3-9.5,9.2-9.6c6.8,0,10.1,5.3,10.1,12.2l3.7,0.2l0.4-10.7h-0.2l0.2-0.2
	c-4.2-3.8-8.9-4.8-14.3-4.8c-8.4,0-16.1,5.8-16.1,15.5c0.1,20.2,26.4,11.6,26.2,25.4c0,6.3-4,10.9-10.2,10.9H355
	c-7.8-0.2-12.6-6.6-12.8-14.9l-4.1-0.2v0.2l0.1,1l1.1,14.1c4.7,2.7,10,3.4,15,3.4c9.7,0,19.4-5.4,19.4-17.1
	C373.5,383.5,346.1,389.2,346.4,377.5z M313.8,365.3c-1.7,0-3.3,0.3-5,0.5l-8.9,5.6l1.3,1.1c2.4-0.7,4.8-1.2,7.1-1.2
	c12.4,0,17.8,11.5,17.9,23.2c0,12.1-5.3,22.3-16.2,22.3c-7.1,0-11.5-5-11.5-12.1v-70.9l-2.2-1c-4.5,2-9.9,3.7-14.9,4.4l-0.1,2
	c3.3,0.2,5.6,0.7,8.4,2.1l-0.2,56.6c0,2.6,0,5.1,0,7.6c0,4.5-0.1,9.1-0.4,13.8l2,1.1l4.1-3.9c3.4,2,7.7,3.6,11.6,3.7
	c19.3-0.1,27.7-13.9,27.7-28.9C334.5,374.3,326.9,365.3,313.8,365.3z M252.4,345.3l0.2-2.8l-25.9-0.2l-0.2,2.8l10.1,2.7l-1.5,4.3
	L218.2,400c-1.9-5.5-15.7-47.4-16.7-50.9l1.3-2l8.4-1.3l0.2-3l-28-0.2v0.2h-0.2v2.8l7.7,1.8l1.4,2.6c-1,3.6-15.4,44.8-17.4,50.3
	L158,348l0.5-0.2l8.1-2l0.4-3h-0.2h-1l-27.9-0.3l-0.3,2.8l10,2.5l23,72.5l3.5,0.2l20.9-57.7l19.4,57.4l3.7,0.2l25.4-72.6
	L252.4,345.3z M157.9,348.1l0.7,2.1L157.9,348.1z M236.6,347.7l-0.6-0.2L236.6,347.7z M407.4,408l-0.3,0.3c-2.4,2.4-6.1,6.1-9.1,6.1
	c-5.7-0.1-7.9-4-7.9-11.2c0-0.3,0-0.6,0-1v-28.4h0.4l15.1,0.2l0.2-5.3l-15.9-0.2l0.2-13.6l-2.7-0.2c-2.2,7.6-8.2,12.1-14.1,16.4
	l-0.1,2.7h0.2v0.2h7.6l-0.2,32.6c0,10.2,6.6,13.8,12.5,13.9c0.2,0,0.5,0,0.7,0c8.4-0.4,14.1-8.7,14.1-8.7l-0.5-3.4L407.4,408z
	 M379.4,315h0.3c6.3-0.2,11.5-2.6,16.3-6.3l-0.3,6.4c0,0,0.1,0,0.1,0h0.1c0,0,0.2-0.1,0.2-0.1c2-0.2,12.1-2.5,16.7-3.4l0.3-0.1
	l-1.6-2.4l-7.4-0.7v-31.8c0-9.2-4-13.4-10.4-13.4c-0.3,0-0.6,0-0.9,0c-0.9,0-1.9,0.1-2.8,0.5l-11.7,7c-1.2,0.7-5.4,3-5.5,5.1
	l-0.4,5.8l0.8,0.6l6.1-1.2c0.7-0.2,1.9-0.1,1.9-1.4v-0.2c-0.1-1-0.1-2-0.1-2.9c0.1-4,1-7.1,8.3-8.1c0.3-0.1,0.5-0.1,0.8-0.1
	c3.7,0,5.9,3.9,5.9,11.4v7.7c-5,1.5-10.5,3.7-16.4,5.6c-4.4,1.4-11.3,3.6-11.3,12.4C368.5,309.5,373.2,315,379.4,315z M396,314.9
	L396,314.9l0.1-1.5L396,314.9z M396.3,290.2L396.3,290.2c-1,0.4-1.8,0.6-2.7,0.9C394.5,290.7,395.4,290.5,396.3,290.2z M396.3,290.4
	v3.4l-0.2,11.4c-3.1,2-8,4.5-10.9,4.5c-3.9,0-7.9-2.7-7.9-6.3C377.3,296.3,384.8,294.3,396.3,290.4z M354.2,250.8
	c2.4,0,4.7-2,4.8-4.6c0-2.7-2-5.2-4.8-5.2c-2.7,0-4.6,2.7-4.6,5.2C349.7,248.6,351.9,250.8,354.2,250.8z M350.8,310.5l-9.5,1.5
	l-0.2,2.6l27.2,0.2v-0.2h0.2v-2.3l-9.5-2l0.2-45.6l-2-1c-4.2,1.9-10.1,3.5-14.8,4.2l-0.2,2.6c3,0.2,6.1,0.7,8.7,2.1L350.8,310.5z
	 M275.6,310.1l-9.1,1.5l-0.2,3l26.9,0.2l0.2-3l-9.3-2l0.2-25.5c0-1.8,4.8-13.5,10.4-13.5c1.2,0,3,0.9,4,1.7l2.8,0.3l2-7
	c-1.8-1.5-6-1.8-8.1-1.8c-5.5,0.1-7.2,6.4-9.4,10.6l-1.4,2.2v-12.2l-2.5-1l-0.1,0.2l-0.1-0.2c-4.1,1.9-10.2,3.5-15,4.2l-0.2,2.6
	c3.1,0.2,6.2,0.7,8.9,2.1L275.6,310.1z M157.1,311.8l-9.5-2l5.3-57.5l0.5-1.4l25.6,61.8l1.4,0.1l24.9-61.3l0.7,1.3l4.9,57.2
	l-10.2,1.5l-0.2,3l29.3,0.2l0.2-3l-8.9-2l-6.4-63.5l10-1.5l-0.1-0.2h0.2l-0.1-2.6l-21.8-0.2l-21.8,52.9l-22.1-52.8l-22.2-0.1
	l-0.3,2.8l10.9,2l-6.1,63.5l-8.4,1.5l-0.2,3l24,0.2L157.1,311.8z M492.5,280.1c0.1-10.4-5.2-16.2-16.2-16.6c-0.1,0-0.1,0-0.2,0
	c-1.3,0-3.5,0.5-6.4,2.9l-7.7,6.6c-2.8-5.2-8-9.3-14.2-9.4c-4,0-5.5,0.5-8.7,3l-7.4,4.8v-7l-2.4-1c-4.1,1.9-9.9,3.5-14.5,4.2l-0.2,2
	c3,0.2,6,0.7,8.5,2.1l-0.1,38.1l-8,1.5l-0.2,2.7l24.9,0.2l0.2-2.5l-8.4-2.2l0.2-34.1c3.7-2.8,7.8-6.1,12.2-6.1
	c9.3,0,9.5,9.4,9.6,17.8v22.7l-8,1.8l-0.2,2.5l24.9,0.2l0.2-2.5l-8.4-2.2l0.2-34.2c3.6-2.6,8.4-5.4,12.8-5.4c8.4,0,8.9,7.1,9,14.6
	c0,1.3,0,2.5,0,3.8v21.5l-8,1.8l-0.2,2.5l24.5,0.2l0.2-2.5l-8-2.2L492.5,280.1z M247.3,315.9c5.2,0,8.8-0.7,9.6-1.2l12.1-12.6
	l-3.4-0.3c-3.9,4.1-7.8,7.6-13.4,7.6c-0.3,0-0.5,0-0.8,0c-15.8-1-18-12.9-18.1-26.5h0.3l27.5,0.2c3,0,4.3-0.4,4.3-4.4
	c0-8.9-7.6-15.1-18.2-15.1c-12.5,0-22.6,9.4-22.6,26C224.7,306.6,234.7,315.9,247.3,315.9z M245.8,266.8c7.6,0,10.9,5.4,10.9,12.5
	c0,0.4,0,0.8,0,1.2l-23-0.2C234.2,273.6,238.7,266.8,245.8,266.8z M341.6,265.8c-1.8-1.5-6-1.8-8.1-1.8c-5.5,0.1-7.2,6.4-9.4,10.6
	l-1.4,2.2v-12.2l-2.5-1l-0.1,0.2l-0.1-0.2c-4.1,1.9-10.2,3.5-15,4.2l-0.2,2.6c3.1,0.2,6.2,0.7,8.9,2.1l-0.1,37.7l-9.1,1.5l-0.2,2.9
	h0.2h0.7l26,0.2l0.2-3l-9.3-2l0.2-25.5c0-1.8,4.8-13.5,10.3-13.5c1.2,0,3,0.9,4,1.7l2.8,0.3L341.6,265.8z M471.5,376.1l-1.5,2.4
	v-12.9l-2.6-1l-0.1,0.2l-0.1-0.2c-4.3,2-10.7,3.7-15.7,4.4l-0.2,2.7c3.3,0.2,6.6,0.7,9.3,2.2l-0.1,39.6l-9.6,1.7l-0.2,3.1l28.2,0.2
	l0.2-3.1l-9.7-2.1l0.2-26.8c0-1.8,5-14.2,10.9-14.2c1.3,0,3.1,1,4.3,1.8l2.9,0.3l2.1-7.4c-1.9-1.6-6.3-1.9-8.5-1.9
	C475.5,365,473.8,371.7,471.5,376.1z M266.6,413.5c-0.3,0-0.6,0-0.9,0c-16.7-1-19-13.6-19.1-28l29.4,0.2c3.2,0,4.5-0.4,4.5-4.6
	c0-9.4-8-15.9-19.2-15.9c-13.2,0.1-23.8,9.9-23.9,27.4c0.1,17.8,10.5,27.8,23.9,27.8c5.5,0,9.3-0.7,10.1-1.2l12.8-13.3l-3.6-0.3
	C276.6,409.8,272.5,413.5,266.6,413.5z M259.8,368.5c8,0,11.5,5.8,11.5,13.2c0,0.4,0,0.9,0,1.3l-24.3-0.2
	C247.6,375.6,252.3,368.5,259.8,368.5z M451.5,405.1c-4.2,4.4-8.2,8-14.1,8c-0.3,0-0.6,0-0.9,0c-16.7-1-19-13.6-19.1-28l29.4,0.2
	c3.2,0,4.5-0.4,4.5-4.6c0-9.4-8-15.9-19.2-15.9c-13.2,0.1-23.9,9.9-23.9,27.4c0,17.9,10.5,27.8,23.9,27.8c5.4,0,9.3-0.7,10.1-1.2
	l12.8-13.3L451.5,405.1z M430.6,368.1c8,0,11.5,5.8,11.5,13.2c0,0.4,0,0.9-0.1,1.3l-24.3-0.2C418.3,375.3,423.1,368.1,430.6,368.1z
	 M500,286.3v7.2h19.5v-7.2H500z"/>
<path class="st1" d="M474.9,558.2c0-4.6,3.7-8,8.2-8c4.4,0,8.1,3.4,8.1,8c0,4.7-3.7,8.1-8.1,8.1
	C478.7,566.3,474.9,562.9,474.9,558.2z M483.1,564.9c3.6,0,6.5-2.9,6.5-6.7c0-3.8-2.9-6.7-6.5-6.7c-3.7,0-6.6,2.9-6.6,6.7
	C476.5,562.1,479.4,564.9,483.1,564.9z M481.4,562.9H480v-9.3h3.5c2.2,0,3.3,0.8,3.3,2.7c0,1.7-1.1,2.4-2.4,2.6l2.7,4.1h-1.6l-2.5-4
	h-1.6L481.4,562.9L481.4,562.9z M483.1,557.6c1.2,0,2.2-0.1,2.2-1.5c0-1.2-1.1-1.4-2-1.4h-1.9v2.9H483.1z"/>
</svg>
